<?xml version="1.0" standalone="no"?>
<!DOCTYPE svg PUBLIC "-//W3C//DTD SVG 20010904//EN"
 "http://www.w3.org/TR/2001/REC-SVG-20010904/DTD/svg10.dtd">
<svg version="1.0" xmlns="http://www.w3.org/2000/svg"
 width="1500.000000pt" height="1500.000000pt" viewBox="0 0 1500.000000 1500.000000"
 preserveAspectRatio="xMidYMid meet">

<g transform="translate(0.000000,1500.000000) scale(0.100000,-0.100000)"
fill="#000000" stroke="none">
<path d="M7305 10451 c-592 -159 -837 -223 -1350 -350 -706 -175 -682 -171
-970 -172 -99 0 -175 -2 -170 -5 6 -2 69 -8 141 -12 140 -10 402 1 434 18 10
5 163 14 340 20 274 10 324 14 341 28 10 9 19 22 19 30 0 22 43 72 61 72 10 0
22 -8 27 -17 9 -15 13 -15 57 1 25 10 48 17 49 15 2 -2 7 -19 11 -36 7 -33 6
-33 -31 -33 -21 0 -46 7 -56 17 -14 12 -21 14 -30 5 -36 -36 49 -63 121 -37
24 8 54 15 67 15 13 0 24 5 24 10 0 6 -6 10 -13 10 -18 0 -47 33 -47 53 0 9 8
21 18 26 15 8 23 4 41 -19 30 -41 45 -39 38 5 -6 37 3 45 23 20 9 -11 16 -12
31 -2 15 9 23 9 38 0 16 -10 25 -9 48 2 27 15 29 14 54 -15 14 -17 29 -27 32
-24 4 4 0 12 -8 18 -22 16 -1 76 26 76 16 0 19 -7 19 -40 0 -42 5 -45 50 -33
25 7 25 7 -5 13 -17 3 -30 11 -30 20 0 16 32 18 90 5 l30 -6 -24 20 c-13 12
-33 21 -45 21 -27 0 -64 25 -53 36 4 5 17 3 27 -4 11 -7 35 -12 54 -12 40 0
68 -9 61 -20 -7 -11 17 -29 42 -33 12 -2 28 -9 37 -16 14 -11 16 -11 16 3 0 9
-4 16 -9 16 -12 0 -113 91 -107 97 2 2 20 -3 40 -11 35 -15 36 -15 25 5 -6 12
-9 21 -7 22 2 1 16 13 31 27 19 17 28 20 26 10 -5 -22 10 -70 21 -70 6 0 10 8
10 18 0 15 6 17 35 14 22 -3 35 0 35 7 0 7 14 17 30 22 17 6 30 14 30 18 0 4
-21 13 -47 21 l-48 14 75 9 c121 15 175 12 215 -13 41 -25 47 -11 10 25 -14
14 -36 25 -51 25 -33 0 -27 8 14 20 26 7 38 4 73 -20 23 -15 48 -41 55 -56
l12 -29 1 42 c1 63 -6 73 -50 73 -21 0 -39 5 -39 10 0 6 14 10 31 10 16 0 50
5 75 11 44 11 45 11 75 -22 16 -18 32 -45 36 -59 10 -42 13 -42 55 -4 35 31
45 35 72 29 17 -4 47 -11 66 -15 32 -7 30 -8 -21 -9 -41 -1 -64 -7 -83 -22
-37 -29 -25 -36 17 -10 46 28 180 28 213 -1 17 -15 25 -16 53 -7 24 8 35 9 42
0 5 -6 6 -9 3 -6 -14 10 -34 -18 -28 -40 3 -13 1 -26 -5 -29 -19 -12 -12 -26
12 -26 12 0 28 -9 35 -20 17 -28 34 -16 22 16 -22 57 -5 100 28 71 9 -8 27
-18 40 -21 17 -6 21 -12 16 -31 -8 -32 9 -38 50 -18 49 23 57 9 15 -27 -19
-16 -31 -29 -28 -30 16 -1 95 32 110 46 10 9 19 11 23 5 7 -11 -40 -51 -60
-51 -8 0 -14 -4 -14 -9 0 -12 30 -22 42 -14 6 3 8 1 5 -4 -7 -11 16 -21 71
-29 18 -3 32 -1 32 4 0 26 -14 42 -39 42 -25 1 -25 1 -7 15 11 8 14 15 7 15
-7 0 -9 5 -5 11 7 12 64 -38 64 -57 0 -7 6 -14 13 -17 9 -3 8 -8 -3 -22 -14
-18 -14 -18 10 -2 33 23 70 22 70 -1 0 -10 5 -23 11 -29 9 -9 -3 -19 -42 -39
-50 -25 -63 -28 -164 -27 l-110 1 75 -9 c96 -11 150 -4 214 29 41 22 50 31 48
50 -2 15 2 22 12 22 10 0 16 -9 16 -22 1 -22 1 -22 15 -4 11 14 11 22 2 37
-13 20 -11 24 18 33 18 5 20 2 17 -47 l-3 -52 29 34 c16 19 33 31 39 28 14 -9
3 -68 -13 -74 -28 -10 -14 -25 19 -20 37 6 82 -7 57 -16 -8 -4 -28 -8 -45 -11
-16 -3 0 -3 36 -1 88 5 138 29 136 64 -2 20 3 27 21 29 31 5 29 -31 -3 -52
-31 -20 -32 -42 -2 -49 12 -3 173 -11 357 -17 184 -6 367 -15 405 -21 202 -29
237 -31 403 -24 95 4 170 10 167 13 -4 4 -115 10 -248 13 -218 6 -256 10 -382
38 -148 32 -572 138 -965 240 -129 34 -323 84 -430 112 -107 28 -292 77 -411
110 -119 32 -227 59 -240 58 -13 0 -87 -17 -164 -38z m352 -45 c4 -3 -14 -6
-40 -6 -42 0 -64 10 -51 22 6 6 82 -7 91 -16z m-658 -97 c37 -13 41 -29 6 -29
-15 0 -25 6 -25 14 0 8 -6 17 -12 19 -25 10 0 7 31 -4z m-380 -140 c-25 -16
-32 -9 -13 12 12 13 20 16 22 9 3 -7 -2 -16 -9 -21z m1851 -24 c-7 -8 -19 -15
-27 -15 -13 0 -13 3 -3 15 7 8 19 15 27 15 13 0 13 -3 3 -15z m-1970 -5 c13
-8 13 -10 -2 -10 -9 0 -20 5 -23 10 -8 13 5 13 25 0z m2195 -70 c3 -5 19 -10
36 -10 16 0 29 -4 29 -10 0 -15 -38 -50 -53 -50 -24 0 -49 37 -42 59 7 23 20
27 30 11z m-2618 -26 c-3 -3 -12 -4 -19 -1 -8 3 -5 6 6 6 11 1 17 -2 13 -5z
m2851 -10 c44 -22 40 -34 -11 -34 -52 0 -60 6 -44 31 14 23 16 23 55 3z
m-2879 -9 c1 -2 0 -8 -4 -14 -8 -14 -35 -14 -35 -1 0 6 -9 10 -21 10 -15 0
-19 -5 -15 -15 4 -11 -1 -15 -19 -15 l-23 0 21 25 c18 21 28 25 57 19 19 -3
37 -7 39 -9z m2960 -21 c-17 -21 -29 -17 -29 11 0 23 2 24 21 15 16 -9 18 -14
8 -26z m46 -4 c3 -5 -1 -10 -10 -10 -9 0 -13 5 -10 10 3 6 8 10 10 10 2 0 7
-4 10 -10z"/>
<path d="M7431 10426 c-7 -8 -8 -17 -3 -20 6 -3 13 1 16 10 9 23 2 28 -13 10z"/>
<path d="M7488 10358 c-8 -49 14 -80 27 -38 3 11 0 29 -8 40 -14 21 -15 21
-19 -2z"/>
<path d="M7141 10321 c-18 -14 -20 -20 -10 -23 15 -6 69 21 69 34 0 14 -35 8
-59 -11z"/>
<path d="M7763 10309 c24 -14 21 -28 -10 -61 -15 -15 -22 -28 -17 -28 6 0 23
14 40 31 25 27 34 30 68 26 64 -9 74 4 20 25 -53 20 -133 26 -101 7z"/>
<path d="M7180 10235 c7 -8 17 -15 22 -15 6 0 5 7 -2 15 -7 8 -17 15 -22 15
-6 0 -5 -7 2 -15z"/>
<path d="M8046 10185 c-11 -8 -17 -17 -14 -20 2 -3 13 4 23 15 21 23 18 25 -9
5z"/>
<path d="M7860 10164 c1 -19 28 -45 35 -34 4 6 5 12 4 13 -2 2 -12 9 -21 16
-10 7 -18 10 -18 5z"/>
<path d="M7953 10162 c-34 -5 -28 -22 7 -22 17 0 30 4 30 9 0 14 -11 18 -37
13z"/>
<path d="M7172 10115 c-26 -56 -1 -105 53 -105 17 0 16 3 -7 18 -30 18 -33 28
-18 52 6 9 5 17 -2 21 -9 6 -8 12 1 23 11 13 11 16 -1 16 -8 0 -20 -11 -26
-25z"/>
<path d="M7010 10109 c-7 -11 -9 -24 -5 -27 7 -7 35 25 35 40 0 16 -19 8 -30
-13z"/>
<path d="M8066 10095 c-3 -8 -3 -22 1 -31 3 -9 -6 -27 -23 -45 -20 -21 -23
-29 -12 -29 9 0 18 9 21 20 3 12 14 20 26 20 18 0 21 6 19 40 -1 40 -20 55
-32 25z"/>
<path d="M6930 10080 c0 -11 2 -20 4 -20 2 0 6 9 9 20 3 11 1 20 -4 20 -5 0
-9 -9 -9 -20z"/>
<path d="M6460 10075 c0 -16 17 -19 44 -9 26 10 18 24 -14 24 -20 0 -30 -5
-30 -15z"/>
<path d="M6729 10059 c-20 -20 -20 -37 0 -24 13 7 34 45 26 45 -3 0 -14 -9
-26 -21z"/>
<path d="M7723 10068 c18 -15 10 -31 -33 -62 l-25 -18 25 7 c40 12 90 33 90
39 0 15 -37 46 -54 46 -18 0 -18 -1 -3 -12z"/>
<path d="M7890 10071 c0 -13 29 -35 37 -28 7 8 -15 37 -28 37 -5 0 -9 -4 -9
-9z"/>
<path d="M8120 10072 c0 -11 59 -67 64 -61 5 4 -50 69 -59 69 -3 0 -5 -4 -5
-8z"/>
<path d="M6785 10045 l-30 -25 27 0 c15 0 30 5 33 10 3 6 15 10 26 10 12 0 19
5 17 13 -8 21 -42 18 -73 -8z"/>
<path d="M7375 10050 c-3 -6 1 -7 9 -4 18 7 21 14 7 14 -6 0 -13 -4 -16 -10z"/>
<path d="M7580 10050 c-22 -7 -21 -8 13 -9 23 -1 36 3 32 9 -7 11 -10 11 -45
0z"/>
<path d="M6111 10020 c-9 -28 -8 -32 16 -41 32 -12 41 -4 25 21 -7 11 -12 27
-12 35 0 26 -18 16 -29 -15z"/>
<path d="M7018 10043 c7 -3 16 -2 19 1 4 3 -2 6 -13 5 -11 0 -14 -3 -6 -6z"/>
<path d="M7840 10030 c0 -5 5 -10 10 -10 6 0 10 5 10 10 0 6 -4 10 -10 10 -5
0 -10 -4 -10 -10z"/>
<path d="M7120 10020 c0 -5 5 -10 11 -10 5 0 7 5 4 10 -3 6 -8 10 -11 10 -2 0
-4 -4 -4 -10z"/>
<path d="M7424 10015 c-10 -8 -41 -15 -69 -16 l-50 -2 44 -4 c44 -4 101 12
101 28 0 12 -3 11 -26 -6z"/>
<path d="M6886 10005 c-19 -14 -19 -15 7 -15 19 0 25 4 21 15 -4 8 -7 15 -8
15 0 0 -10 -7 -20 -15z"/>
<path d="M6956 10011 c-6 -8 40 -21 73 -21 11 1 8 5 -9 15 -29 16 -56 19 -64
6z"/>
<path d="M7910 10010 c0 -5 11 -10 25 -10 14 0 25 5 25 10 0 6 -11 10 -25 10
-14 0 -25 -4 -25 -10z"/>
<path d="M7578 9993 c12 -2 30 -2 40 0 9 3 -1 5 -23 4 -22 0 -30 -2 -17 -4z"/>
<path d="M8416 9992 c-7 -11 50 -22 114 -21 35 0 40 2 24 9 -35 14 -131 23
-138 12z"/>
<path d="M9998 9993 c7 -3 16 -2 19 1 4 3 -2 6 -13 5 -11 0 -14 -3 -6 -6z"/>
<path d="M6523 9983 c9 -2 25 -2 35 0 9 3 1 5 -18 5 -19 0 -27 -2 -17 -5z"/>
<path d="M4820 9862 c0 -23 121 -145 166 -168 22 -12 24 -11 32 18 17 67 40
32 43 -66 2 -41 4 -33 15 52 5 41 24 50 24 11 0 -30 17 -22 24 11 12 64 36 23
36 -63 0 -30 4 -46 10 -42 6 3 10 19 10 34 0 30 21 56 35 43 4 -4 5 3 2 15 -5
21 -2 22 21 16 15 -4 34 -6 42 -5 69 8 75 7 78 -15 2 -16 10 -23 27 -23 23 0
35 17 35 51 0 10 7 19 15 19 11 0 15 -13 16 -52 l1 -53 9 44 c10 54 17 61 34
38 13 -18 14 -17 20 2 12 38 35 25 35 -19 0 -22 5 -40 10 -40 6 0 10 5 10 11
0 16 31 38 53 39 9 0 17 7 17 17 0 15 2 15 19 -1 15 -14 29 -16 60 -11 37 6
41 5 41 -14 0 -28 27 -18 62 23 l27 31 8 -55 7 -55 6 40 c4 29 10 40 22 40 9
0 20 4 24 8 15 15 34 6 34 -16 0 -31 4 -34 40 -29 22 3 30 10 30 24 0 16 4 18
18 12 9 -5 43 -7 75 -6 l57 2 0 -32 0 -33 20 25 c10 14 20 34 22 44 5 30 27
30 34 0 l7 -27 12 23 13 23 13 -24 13 -24 6 24 c8 34 26 37 34 6 6 -24 7 -24
30 -10 16 11 26 13 31 6 9 -16 35 -13 35 4 0 17 16 20 25 5 9 -15 127 -8 143
8 24 22 42 14 42 -18 0 -16 5 -30 10 -30 6 0 10 11 10 25 0 33 16 32 28 -2
l10 -28 7 28 c9 35 35 36 35 0 0 -21 3 -24 12 -15 7 7 22 12 35 12 13 0 23 5
23 10 0 13 57 13 62 1 3 -9 66 -1 101 14 13 6 16 4 11 -9 -3 -9 -10 -16 -15
-16 -5 0 -9 -6 -9 -13 0 -27 30 -13 38 17 10 39 42 49 42 12 0 -34 18 -43 22
-11 4 32 21 34 29 3 l6 -23 4 24 c5 29 27 40 34 17 16 -52 17 -52 26 -27 9 24
31 25 83 5 13 -5 17 -4 12 4 -5 9 5 10 38 6 29 -4 51 -2 60 5 7 6 31 12 52 14
33 2 38 -1 44 -23 l6 -25 8 23 c9 26 36 30 37 5 0 -13 3 -12 10 5 11 28 33 24
37 -6 4 -26 17 -29 26 -6 5 12 13 15 34 9 15 -3 53 -6 84 -5 70 2 82 -4 67
-32 -8 -16 -8 -19 2 -16 7 2 17 17 22 34 18 53 42 57 62 12 l14 -33 1 28 c0
23 4 27 30 27 26 0 31 -5 37 -31 5 -26 7 -28 15 -14 7 12 17 15 34 11 17 -5
24 -2 24 9 0 17 40 21 56 5 7 -7 21 -7 42 1 18 6 45 9 60 6 17 -3 34 1 44 10
22 20 37 10 31 -22 -3 -13 -2 -33 3 -42 6 -14 9 -8 13 22 7 46 36 62 44 23 l4
-23 2 23 c1 28 28 29 33 2 2 -12 6 -21 11 -20 4 0 23 0 42 0 24 0 35 5 35 15
0 17 25 20 35 5 4 -6 23 -7 46 -4 32 5 39 4 40 -10 2 -29 4 -34 12 -42 4 -4 7
-2 7 4 0 6 6 9 13 6 9 -3 17 7 23 28 13 44 37 43 45 -2 4 -20 7 -26 8 -13 1
29 11 53 22 53 5 0 9 -8 9 -17 0 -15 1 -15 13 2 21 28 34 11 42 -52 5 -42 9
-53 16 -41 5 9 8 27 7 40 -3 19 2 23 30 26 20 2 32 9 32 18 0 16 16 19 25 4 4
-6 21 -8 41 -4 28 5 39 2 56 -15 20 -23 45 -23 40 -1 -3 13 16 40 28 40 4 0
11 -17 15 -37 l7 -38 16 30 15 30 15 -35 c13 -28 16 -31 19 -15 11 62 15 70
23 55 4 -8 10 -32 14 -52 8 -46 33 -51 34 -7 1 39 4 42 35 30 18 -7 28 -7 33
0 3 6 13 8 21 5 9 -4 22 -1 29 5 20 17 44 3 44 -25 0 -14 7 -31 15 -40 8 -8
19 -25 24 -38 8 -18 10 -12 10 33 1 31 7 64 15 75 15 20 16 18 28 -25 3 -11 7
-11 20 3 22 21 28 20 28 -5 0 -11 5 -17 10 -14 6 3 10 18 10 31 0 30 23 28 28
-2 6 -29 21 -41 32 -25 5 9 25 15 47 15 21 1 46 6 57 12 24 14 66 -4 66 -28 0
-9 11 -29 25 -44 l25 -27 0 27 c0 36 27 99 40 91 5 -3 10 -35 10 -71 0 -36 4
-64 10 -64 6 0 10 27 10 60 0 61 12 79 25 38 6 -23 7 -22 17 5 14 38 26 34 33
-10 10 -58 11 -60 25 -30 7 15 18 27 25 27 13 0 165 148 165 161 0 5 -822 9
-1967 9 -1083 1 -2280 3 -2660 5 -381 2 -693 0 -693 -3z m1538 -21 c10 -6 10
-10 -3 -21 -11 -9 -36 -11 -93 -6 -42 4 -110 6 -150 6 -109 -2 -111 14 -2 21
158 9 234 9 248 0z m424 -1 c4 0 5 -7 2 -15 -5 -12 -26 -15 -100 -15 -52 0
-94 3 -94 8 0 4 -38 5 -85 3 -47 -1 -93 1 -103 5 -26 13 206 21 380 14z m382
2 c3 -4 1 -14 -3 -21 -6 -9 -46 -11 -162 -9 -149 3 -215 15 -159 28 38 9 318
11 324 2z m196 -2 c19 -12 6 -16 -73 -24 -58 -6 -103 6 -92 25 8 12 145 12
165 -1z m235 -2 c2 -2 0 -10 -5 -18 -7 -12 -30 -15 -100 -14 -50 1 -93 4 -96
7 -4 3 -4 14 0 23 5 14 20 15 101 11 53 -2 98 -6 100 -9z m352 4 c7 -5 9 -13
3 -21 -6 -11 -41 -14 -160 -12 -83 0 -156 3 -161 7 -16 10 -10 23 14 26 48 7
293 7 304 0z m203 -1 l25 -7 -22 -12 c-25 -14 -141 -16 -162 -3 -7 5 -10 14
-7 20 8 12 125 14 166 2z m239 -7 c1 -1 0 -7 -4 -13 -10 -17 -192 -14 -198 3
-3 8 -4 16 -1 19 5 4 196 -3 203 -9z m328 6 c34 0 41 -3 37 -15 -9 -21 -159
-22 -167 -1 -8 19 10 26 53 21 19 -3 54 -5 77 -5z m-3542 -10 c-3 -5 -42 -10
-86 -10 -46 0 -79 4 -79 10 0 6 35 10 86 10 54 0 83 -4 79 -10z m379 0 c-15
-15 -310 -15 -319 1 -4 5 62 9 161 9 106 0 165 -3 158 -10z m181 0 c-3 -5 -35
-10 -70 -10 -35 0 -67 5 -70 10 -4 6 22 10 70 10 48 0 74 -4 70 -10z m240 1
c-8 -14 -108 -24 -150 -17 -67 13 -35 26 61 26 56 0 93 -4 89 -9z m2592 -3
c-2 -9 -26 -13 -70 -13 -39 0 -71 5 -79 13 -10 9 5 12 71 12 62 0 82 -3 78
-12z m410 0 c-3 -10 -29 -12 -93 -10 -128 4 -133 22 -5 22 78 0 102 -3 98 -12z
m186 -3 c-4 -13 -20 -15 -81 -13 -49 2 -77 7 -80 16 -3 9 18 12 82 12 73 0 84
-2 79 -15z m375 3 c-5 -14 -120 -24 -147 -12 -9 4 -50 6 -92 5 -47 -2 -79 2
-83 8 -5 8 42 11 159 11 129 0 166 -3 163 -12z m216 0 c-7 -12 -154 -10 -154
2 0 6 33 9 79 8 44 -1 78 -5 75 -10z m176 3 c0 -9 -127 -22 -147 -14 -34 13
-6 23 67 23 44 0 80 -4 80 -9z"/>
<path d="M8950 9676 c0 -8 4 -17 9 -20 5 -4 7 3 4 14 -6 23 -13 26 -13 6z"/>
<path d="M9668 9603 c7 -3 16 -2 19 1 4 3 -2 6 -13 5 -11 0 -14 -3 -6 -6z"/>
<path d="M5058 9573 c-54 -2 -98 -8 -98 -13 0 -6 12 -10 28 -10 15 0 1087 -2
2382 -4 1295 -2 2396 -7 2445 -11 101 -8 175 5 175 31 0 13 -7 14 -32 8 -33
-8 -4692 -10 -4764 -2 -21 2 -83 3 -136 1z"/>
<path d="M5304 9373 c1 -20 -33 -30 -107 -32 -27 0 -46 -5 -43 -10 4 -5 -13
-12 -36 -16 -24 -4 -54 -13 -67 -20 -21 -11 -17 -12 43 -18 37 -4 72 -10 79
-14 7 -4 20 -6 29 -5 9 2 21 -5 26 -15 10 -19 21 -240 28 -558 3 -105 8 -233
13 -285 7 -81 8 -58 10 150 1 301 11 530 23 530 23 0 49 -45 54 -93 3 -29 8
-59 12 -67 3 -8 7 -19 7 -25 1 -5 7 -22 13 -37 7 -18 12 -211 14 -597 2 -372
6 -571 13 -571 6 0 11 118 14 327 2 180 7 337 12 348 9 23 9 22 18 -340 5
-213 8 -250 21 -250 13 0 16 51 23 370 4 204 10 381 14 395 l6 25 7 -30 c4
-16 9 -106 10 -200 2 -93 5 -224 9 -290 l6 -120 7 85 c4 47 7 112 8 145 1 33
3 62 6 64 2 2 5 -72 6 -165 2 -236 3 -242 12 -251 4 -4 20 -9 34 -10 15 -1 39
-4 55 -8 25 -7 27 -5 27 21 0 16 2 92 5 169 10 326 25 877 30 1095 l4 235 38
16 38 17 -65 3 c-59 4 -65 6 -68 27 -3 22 -4 22 -197 22 -176 0 -193 -1 -191
-17z"/>
<path d="M6080 9371 c0 -16 -10 -21 -57 -26 -32 -4 -71 -13 -88 -20 -16 -8
-46 -17 -66 -20 -19 -3 -44 -12 -55 -21 -18 -15 -18 -15 10 -9 35 7 166 -13
188 -29 14 -10 19 -44 28 -187 11 -181 16 -213 30 -204 4 3 14 -10 21 -28 9
-24 13 -164 14 -580 2 -301 5 -551 9 -554 7 -8 7 -25 10 327 5 519 32 537 42
30 4 -191 11 -333 17 -337 19 -11 27 24 28 122 0 55 7 141 14 190 l12 90 2
-185 c1 -102 5 -190 9 -196 23 -35 207 -53 237 -23 13 13 17 72 25 375 5 197
12 409 15 469 3 61 7 198 10 305 3 107 8 241 11 296 4 66 2 108 -5 122 -10 18
-7 22 24 32 59 19 53 32 -13 24 -57 -6 -59 -5 -65 18 -6 24 -10 25 -128 31
-67 4 -157 7 -201 7 -70 0 -78 -2 -78 -19z"/>
<path d="M6879 9363 c-7 -19 -16 -23 -49 -23 -25 0 -39 -4 -35 -10 3 -5 16
-10 27 -10 43 0 9 -11 -48 -16 -117 -9 -164 -16 -164 -22 0 -4 31 -7 70 -8 90
-1 150 -20 150 -48 1 -52 11 -328 15 -396 2 -41 7 -301 11 -577 4 -276 11
-500 16 -497 4 3 9 69 9 147 1 78 4 207 8 287 6 144 6 143 15 -145 5 -159 10
-306 11 -325 2 -39 21 -52 28 -18 l4 23 8 -22 c6 -20 14 -23 61 -23 49 0 55 2
64 26 6 14 7 36 4 50 -4 16 -2 25 7 28 8 2 28 7 44 13 39 12 93 -4 101 -29 8
-26 -2 -34 -21 -18 -17 14 -20 13 -29 -15 -8 -27 8 -50 29 -41 10 3 23 1 31
-5 10 -8 17 -2 32 28 18 35 21 76 31 493 7 250 16 586 21 745 5 160 6 302 3
317 -4 23 0 29 28 43 l34 15 -52 -4 c-50 -5 -52 -4 -62 25 l-10 29 -113 0
c-62 1 -148 2 -192 3 -73 2 -79 0 -87 -20z"/>
<path d="M8658 9382 c-151 -2 -188 -5 -188 -16 0 -17 -22 -26 -63 -26 -36 0
-26 -16 13 -22 14 -2 -24 -7 -83 -11 -126 -8 -165 -21 -93 -31 25 -3 66 -9 91
-12 78 -11 73 11 85 -379 6 -192 15 -444 20 -560 6 -115 10 -298 10 -406 0
-180 2 -197 19 -213 16 -15 43 -18 166 -20 80 -1 151 2 158 6 6 4 17 2 24 -4
9 -7 17 -7 28 2 12 10 15 41 15 154 0 77 5 213 11 301 6 88 10 171 8 185 -4
45 -3 74 4 115 26 157 49 807 28 819 -22 14 -10 35 27 46 66 18 73 32 12 25
-30 -4 -60 -13 -66 -21 -15 -19 -24 -7 -24 32 0 18 -3 34 -7 36 -5 2 -92 2
-195 0z"/>
<path d="M9264 9365 c-7 -16 -20 -21 -67 -23 -39 -2 -60 -8 -64 -18 -3 -9 -20
-14 -47 -14 -22 -1 -54 -7 -71 -14 l-30 -13 50 -8 c146 -21 140 -18 143 -48 2
-15 7 -25 11 -23 4 3 11 -88 15 -202 4 -114 11 -317 17 -452 5 -135 10 -373
10 -530 l-1 -285 33 -32 c28 -27 38 -31 63 -24 26 7 30 12 35 62 6 52 6 53 7
11 2 -50 17 -83 35 -76 9 3 12 104 13 440 1 239 4 438 8 441 3 4 12 1 19 -6 9
-9 13 -118 15 -441 3 -364 6 -430 18 -430 9 0 14 11 14 32 0 37 9 33 12 -5 3
-37 34 -37 35 1 0 15 1 214 3 442 1 272 6 439 14 485 l12 70 7 -150 c3 -83 6
-310 7 -504 0 -195 4 -359 8 -365 4 -6 10 273 13 619 3 347 10 643 14 658 9
33 27 31 35 -4 6 -22 7 -23 13 -4 3 11 9 79 12 150 3 72 8 137 11 147 3 9 0
19 -6 23 -21 13 -9 25 35 36 25 6 48 15 51 20 7 12 -87 11 -106 -1 -12 -7 -16
-3 -20 21 l-5 30 -181 2 c-173 2 -182 1 -190 -18z"/>
<path d="M9968 9383 c6 -2 18 -2 25 0 6 3 1 5 -13 5 -14 0 -19 -2 -12 -5z"/>
<path d="M7677 9360 c-4 -15 -13 -20 -36 -20 -17 0 -31 -4 -31 -10 0 -5 8 -10
18 -10 14 0 14 -2 3 -9 -8 -5 -46 -10 -85 -10 -39 -1 -84 -5 -101 -9 -27 -8
-24 -9 30 -15 102 -11 128 -16 136 -28 12 -19 25 -419 35 -1083 7 -396 9 -429
25 -433 9 -3 19 -13 22 -24 5 -20 41 -26 52 -9 3 6 1 10 -4 10 -16 0 -13 36 4
50 20 16 27 9 29 -31 1 -31 3 -33 46 -35 25 -1 68 -5 97 -9 29 -3 72 -3 97 0
73 11 72 5 86 520 7 248 16 549 19 670 9 266 8 385 -2 406 -6 12 1 20 30 32
l38 17 -57 -5 c-56 -5 -57 -5 -60 22 l-3 28 -191 3 c-185 2 -192 2 -197 -18z"/>
<path d="M4950 9325 c31 -18 47 -18 85 0 29 13 27 13 -40 14 -66 0 -68 -1 -45
-14z"/>
<path d="M9855 9328 c-11 -6 -51 -22 -89 -34 l-70 -22 94 -6 c52 -3 105 -6
118 -6 12 0 25 -7 28 -15 9 -24 21 -18 27 14 4 16 19 41 34 55 l28 26 -75 0
c-41 0 -84 -6 -95 -12z"/>
<path d="M5271 7843 c-1 -63 -5 -93 -13 -96 -9 -3 -7 -7 5 -12 10 -4 20 -5 23
-2 3 3 2 50 -4 104 l-9 98 -2 -92z"/>
<path d="M7120 7731 c0 -11 5 -23 10 -26 6 -4 10 5 10 19 0 14 -4 26 -10 26
-5 0 -10 -9 -10 -19z"/>
<path d="M9955 7740 c11 -5 27 -9 35 -9 13 -1 13 0 0 9 -8 5 -24 9 -35 9 l-20
0 20 -9z"/>
<path d="M5464 7717 c-8 -22 -1 -30 21 -25 14 3 14 5 1 23 -14 19 -15 19 -22
2z"/>
<path d="M9060 7690 c-25 -5 -8 -8 59 -9 52 0 92 1 90 3 -10 8 -117 13 -149 6z"/>
<path d="M9908 7683 c18 -2 45 -2 60 0 15 2 0 4 -33 4 -33 0 -45 -2 -27 -4z"/>
<path d="M10065 7670 c3 -5 8 -10 11 -10 2 0 4 5 4 10 0 6 -5 10 -11 10 -5 0
-7 -4 -4 -10z"/>
<path d="M10275 7616 c-16 -13 -41 -27 -55 -31 -24 -8 -24 -8 -5 -16 11 -4 49
-8 84 -8 l64 -1 -7 32 c-10 53 -35 60 -81 24z"/>
<path d="M4585 7601 c-16 -15 4 -21 78 -21 50 0 76 4 67 9 -17 10 -138 20
-145 12z"/>
<path d="M9560 7580 c0 -5 7 -10 16 -10 8 0 12 5 9 10 -3 6 -10 10 -16 10 -5
0 -9 -4 -9 -10z"/>
<path d="M9733 7573 c15 -2 37 -2 50 0 12 2 0 4 -28 4 -27 0 -38 -2 -22 -4z"/>
<path d="M10144 7554 c-18 -14 -18 -14 6 -3 31 14 36 19 24 19 -6 0 -19 -7
-30 -16z"/>
<path d="M4583 7520 l-2 -30 80 0 c44 0 78 4 75 8 -3 5 -20 8 -38 7 -18 -2
-37 0 -43 3 -5 4 -14 7 -20 8 -5 0 -16 2 -22 2 -7 1 -13 9 -13 17 0 28 -15 15
-17 -15z"/>
<path d="M10215 7521 c-5 -16 -14 -19 -73 -16 -79 3 -88 -1 -223 -98 -55 -40
-113 -80 -127 -90 l-27 -19 25 7 c14 4 48 22 76 41 28 19 56 34 62 34 7 0 12
6 12 13 1 19 110 90 139 90 14 1 83 -3 154 -7 l127 -8 0 36 0 36 -69 0 c-60 0
-71 -3 -76 -19z"/>
<path d="M10287 7416 c5 -22 1 -25 -33 -29 -23 -2 -8 -4 35 -5 72 -2 73 -1 67
21 -3 12 -6 25 -6 30 0 4 -15 7 -34 7 -30 0 -33 -2 -29 -24z"/>
<path d="M10158 7383 c7 -3 16 -2 19 1 4 3 -2 6 -13 5 -11 0 -14 -3 -6 -6z"/>
<path d="M5250 7346 c0 -2 8 -10 18 -17 15 -13 16 -12 3 4 -13 16 -21 21 -21
13z"/>
<path d="M4781 7270 l-84 -5 48 -37 c27 -21 51 -38 55 -38 4 0 29 7 56 15 27
8 63 15 80 15 35 0 78 36 53 44 -24 8 -121 11 -208 6z"/>
<path d="M9679 7247 c-74 -57 -74 -57 -280 -57 -119 0 -189 -4 -183 -9 5 -5
95 -11 200 -13 l191 -3 48 40 c26 22 57 48 69 57 39 32 -1 18 -45 -15z"/>
<path d="M5420 7260 c20 -13 160 -13 160 0 0 6 -36 10 -87 10 -61 0 -83 -3
-73 -10z"/>
<path d="M5636 7261 c-10 -16 22 -32 56 -29 22 2 34 9 36 21 3 14 -4 17 -42
17 -25 0 -47 -4 -50 -9z"/>
<path d="M9232 7253 c2 -13 14 -19 46 -21 38 -3 43 -1 40 15 -2 13 -14 19 -46
21 -38 3 -43 1 -40 -15z"/>
<path d="M7996 7253 c-1 -1 -61 -3 -134 -4 -73 0 -132 -5 -132 -9 0 -9 96 -40
123 -40 8 0 26 -10 41 -21 23 -18 31 -20 52 -10 14 6 35 11 48 11 13 0 29 7
36 15 7 8 24 15 39 15 36 0 101 19 101 30 0 7 -167 20 -174 13z"/>
<path d="M9982 7243 c13 -12 32 -16 72 -14 31 1 70 -5 91 -13 35 -15 38 -14
76 9 21 14 39 27 39 30 0 3 -66 5 -147 5 -138 0 -146 -1 -131 -17z"/>
<path d="M5312 7206 l48 -44 182 4 c190 5 213 8 203 23 -3 6 -76 7 -184 4
l-179 -6 -59 32 -58 32 47 -45z"/>
<path d="M6547 7134 c-11 -13 -29 -24 -39 -24 -10 0 -18 -6 -18 -13 0 -8 -18
-30 -40 -50 -44 -39 -49 -54 -16 -48 l21 3 -20 -23 c-11 -13 -26 -28 -33 -32
-10 -7 -10 -12 -2 -22 9 -11 6 -22 -14 -48 -41 -54 -36 -65 31 -63 36 0 58 6
61 14 3 9 -4 11 -25 7 l-28 -6 22 19 c12 11 19 22 16 26 -4 3 5 6 19 6 13 0
35 11 48 25 13 14 31 25 41 25 23 0 107 58 159 109 23 22 47 41 53 41 7 0 -3
13 -22 29 -19 17 -38 28 -43 25 -4 -3 -16 2 -25 12 -11 11 -18 13 -21 5 -2 -6
-9 -8 -15 -4 -7 5 -29 9 -51 9 -29 1 -43 -4 -59 -22z"/>
<path d="M6845 7120 c-3 -5 -1 -10 4 -10 6 0 11 5 11 10 0 6 -2 10 -4 10 -3 0
-8 -4 -11 -10z"/>
<path d="M10213 7061 c-26 -22 -68 -57 -92 -79 -57 -52 -76 -54 -376 -52 -518
5 -835 0 -835 -11 0 -8 161 -10 578 -8 494 3 581 6 599 19 73 53 197 170 180
170 -3 0 -27 -18 -54 -39z"/>
<path d="M10840 6992 c-161 -150 -260 -250 -260 -262 0 -6 4 -8 10 -5 12 8 60
-17 84 -44 13 -14 26 -19 39 -15 11 4 41 6 65 6 57 -2 63 3 52 33 -9 22 -7 25
16 25 14 0 27 7 31 18 4 9 15 26 25 36 10 11 18 30 18 42 0 22 -1 23 -38 10
-32 -12 -142 -11 -142 0 0 23 57 98 114 150 59 53 105 104 94 104 -2 0 -50
-44 -108 -98z m-120 -192 c0 -5 10 -18 22 -30 32 -30 12 -46 -39 -30 -51 17
-57 24 -41 49 13 21 58 30 58 11z m50 -90 c0 -5 -6 -10 -14 -10 -8 0 -18 5
-21 10 -3 6 3 10 14 10 12 0 21 -4 21 -10z"/>
<path d="M4750 7057 c0 -9 37 -45 58 -56 31 -16 28 -7 -10 28 -29 27 -48 38
-48 28z"/>
<path d="M7010 7043 c0 -7 -6 -13 -14 -13 -8 0 -23 -16 -35 -35 -12 -21 -36
-42 -55 -50 -20 -8 -47 -27 -61 -42 -14 -15 -25 -22 -25 -16 0 7 5 15 10 18 6
3 10 10 10 16 0 19 -29 8 -70 -26 -50 -42 -68 -44 -66 -10 0 16 7 25 17 25 9
0 19 6 22 13 9 24 -67 5 -77 -19 -6 -13 -26 -25 -55 -33 -95 -26 -108 -32
-108 -46 0 -12 35 -14 223 -14 178 1 222 3 218 14 -3 7 5 15 20 19 17 4 23 11
19 22 -7 19 28 57 86 91 43 25 45 46 2 24 -31 -17 -41 -13 -41 17 0 27 -20 70
-20 45z"/>
<path d="M7805 7040 c3 -5 8 -10 11 -10 2 0 4 5 4 10 0 6 -5 10 -11 10 -5 0
-7 -4 -4 -10z"/>
<path d="M7755 7030 c-6 -9 29 -34 63 -45 21 -6 23 -4 17 14 -3 12 -5 21 -3
21 3 0 141 -52 171 -65 32 -14 17 12 -23 39 -54 35 -138 55 -150 36 -7 -12
-15 -13 -40 -3 -16 6 -32 8 -35 3z"/>
<path d="M5290 6996 l-34 -13 33 -6 c18 -4 84 -7 145 -7 99 0 113 2 129 20 17
20 16 20 -111 19 -75 0 -141 -6 -162 -13z"/>
<path d="M9443 7003 c-30 -12 -7 -20 70 -26 103 -8 184 0 184 19 0 11 -25 14
-121 13 -67 0 -127 -3 -133 -6z"/>
<path d="M4140 6975 c13 -14 26 -25 28 -25 3 0 -5 11 -18 25 -13 14 -26 25
-28 25 -3 0 5 -11 18 -25z"/>
<path d="M8040 6980 c-13 -9 -13 -12 3 -24 9 -7 17 -18 17 -25 0 -6 4 -11 10
-11 5 0 26 -14 46 -32 l36 -32 61 34 c34 18 69 39 78 46 8 8 25 14 37 14 12 0
22 4 22 9 0 5 8 8 18 6 9 -1 11 0 5 2 -7 3 -13 8 -13 13 0 5 -39 6 -87 3 -49
-2 -105 -5 -126 -6 -32 -1 -36 -3 -23 -12 9 -7 13 -15 9 -18 -14 -14 -42 -6
-60 18 -14 19 -22 22 -33 15z"/>
<path d="M7445 6958 c-43 -15 -76 -31 -71 -35 1 -2 26 2 55 8 28 6 58 9 65 6
10 -4 12 0 9 14 -6 21 -14 22 -58 7z"/>
<path d="M7600 6961 c0 -10 30 -24 37 -17 3 3 2 9 -2 15 -8 13 -35 15 -35 2z"/>
<path d="M7844 6949 c-4 -7 -24 -9 -54 -5 -53 7 -97 -6 -117 -34 -12 -16 -25
-18 -128 -16 -110 2 -116 1 -130 -21 -19 -29 -19 -29 8 -30 12 0 16 1 10 4
-22 8 -14 23 11 23 36 0 78 -18 71 -30 -4 -6 -11 -8 -16 -5 -5 3 -38 -1 -73
-10 -80 -20 -150 -17 -154 7 -3 17 25 52 49 60 8 3 11 9 7 13 -9 10 -112 -21
-154 -46 -34 -20 -80 -25 -86 -9 -4 11 -81 -13 -85 -27 -2 -5 23 -10 54 -11
101 -3 171 -13 176 -25 2 -7 5 -52 6 -102 3 -97 13 -125 37 -100 11 10 21 12
39 5 29 -11 68 6 81 35 7 15 33 26 111 46 56 15 116 31 133 38 16 6 44 16 60
22 36 14 39 32 8 46 -23 11 -23 11 7 23 17 7 85 13 161 15 72 1 135 4 140 7 5
2 25 5 43 7 19 1 37 3 39 6 9 9 -120 63 -165 70 -54 7 -87 23 -65 32 6 2 12 9
12 14 0 13 -27 11 -36 -2z"/>
<path d="M5255 6930 c-192 -3 -323 -8 -300 -12 22 -4 268 -8 547 -8 292 0 509
-4 512 -9 8 -13 46 -1 46 14 0 28 36 27 -805 15z"/>
<path d="M10967 6883 c-15 -14 -6 -23 24 -23 27 0 30 2 19 15 -13 16 -32 19
-43 8z"/>
<path d="M5949 6860 c-19 -10 -64 -28 -100 -40 -35 -12 -68 -25 -72 -29 -15
-15 64 -63 116 -71 29 -4 44 -8 35 -9 -10 0 -18 -5 -18 -9 0 -23 159 -146 205
-158 12 -3 82 -1 156 4 111 7 136 6 146 -5 9 -11 42 -14 147 -14 75 0 140 3
145 6 19 11 177 14 208 3 24 -9 35 -9 47 1 12 10 20 10 37 0 13 -6 34 -15 48
-20 23 -6 23 -7 5 -8 -12 -1 -27 -7 -33 -15 -12 -14 -5 -46 10 -46 5 0 9 -4 9
-10 0 -5 -8 -10 -17 -10 -15 0 -16 -2 -3 -10 13 -8 13 -11 1 -19 -17 -11 -26
-350 -16 -609 7 -169 8 -173 26 -156 14 12 19 31 19 64 0 42 5 53 40 89 l41
42 -2 235 c-1 206 -3 235 -17 245 -13 7 -14 12 -4 15 6 3 12 14 12 25 0 13 -5
17 -17 12 -17 -6 -17 -5 0 14 20 23 23 65 5 62 -37 -4 -42 2 -18 21 l25 20
-22 0 c-29 0 -29 4 0 43 18 25 24 47 25 103 l3 72 -385 4 -386 4 -32 31 c-38
35 -108 73 -137 73 -11 0 -26 -7 -34 -15 -8 -8 -16 -12 -19 -10 -11 11 -114
-27 -130 -47 -16 -21 -18 -22 -34 -7 -15 16 -15 18 3 35 10 11 31 28 46 39 25
18 27 24 18 48 -12 32 -32 34 -82 7z m751 -209 c0 -13 -28 -22 -35 -11 -3 4 1
11 7 13 20 8 28 8 28 -2z m180 4 c0 -13 -56 -25 -89 -18 l-36 7 30 7 c38 8 95
11 95 4z m-456 -14 c8 -12 -20 -22 -40 -14 -13 5 -13 7 -2 14 17 11 35 11 42
0z m673 -4 c-2 -7 -16 -13 -32 -15 -15 -2 -39 -11 -53 -20 -27 -18 -127 -28
-117 -12 3 6 20 10 36 10 17 0 40 5 51 11 21 11 21 12 -3 24 -21 12 -16 13 49
13 51 0 72 -3 69 -11z m-717 -52 c-7 -8 -16 -12 -21 -9 -13 8 -1 24 18 24 13
0 13 -3 3 -15z m120 7 c0 -15 -24 -32 -44 -32 -20 0 -19 2 4 20 27 21 40 25
40 12z"/>
<path d="M10805 6860 c-3 -5 -1 -10 4 -10 6 0 11 5 11 10 0 6 -2 10 -4 10 -3
0 -8 -4 -11 -10z"/>
<path d="M7315 6849 c-15 -6 -11 -8 18 -8 20 -1 37 1 37 3 0 9 -37 12 -55 5z"/>
<path d="M8420 6834 l-25 -15 34 5 c18 3 42 6 52 6 11 0 19 5 19 10 0 15 -52
11 -80 -6z"/>
<path d="M8715 6782 c-16 -11 -36 -26 -44 -36 -33 -39 -46 -40 -444 -42 -213
-1 -390 -4 -393 -7 -3 -3 -1 -14 5 -25 7 -14 26 -21 62 -26 29 -4 65 -10 80
-13 22 -4 29 -2 29 10 0 21 18 24 130 27 122 2 111 -17 -14 -24 -49 -2 -93 -9
-98 -14 -10 -10 40 -52 61 -52 5 0 14 -6 18 -14 10 -17 80 -30 148 -27 17 0
39 1 50 0 11 0 63 2 115 4 52 2 127 5 165 6 l70 1 -26 18 c-15 9 -39 26 -54
36 -15 11 -43 22 -63 26 l-37 6 59 14 c58 14 59 14 78 -12 10 -15 32 -29 48
-33 34 -7 38 -19 13 -34 -28 -15 -11 -21 32 -11 21 5 46 5 54 1 9 -4 42 -7 73
-6 55 2 61 4 144 71 48 38 103 82 123 97 20 15 36 33 36 40 0 14 -83 15 -221
3 -87 -8 -93 -8 -110 13 -23 26 -50 27 -89 3z m68 -92 c3 -11 1 -18 -4 -14 -5
3 -9 12 -9 20 0 20 7 17 13 -6z"/>
<path d="M6950 6755 c0 -7 30 -13 34 -7 3 4 -4 9 -15 9 -10 1 -19 0 -19 -2z"/>
<path d="M7000 6751 c0 -13 20 -18 47 -13 36 7 27 22 -12 22 -19 0 -35 -4 -35
-9z"/>
<path d="M7895 6751 c-6 -11 131 -8 142 2 3 4 -26 7 -65 7 -39 0 -73 -4 -77
-9z"/>
<path d="M4825 6700 c-351 -4 -415 -9 -343 -26 31 -7 32 -7 124 6 84 13 214 6
214 -11 0 -5 -12 -9 -27 -9 -16 0 -41 -7 -57 -15 -15 -8 -33 -15 -39 -15 -6 0
-18 -6 -26 -14 -29 -26 -135 -78 -139 -67 -4 11 -72 -17 -72 -30 0 -4 18 -5
39 -2 30 4 44 1 57 -12 13 -12 27 -15 53 -11 107 17 151 18 151 6 0 -9 25 -11
103 -7 l104 4 43 47 c38 41 47 46 87 46 47 0 122 31 91 38 -9 2 -26 -2 -37 -7
-11 -6 -24 -11 -30 -11 -15 0 -14 27 2 37 30 19 235 38 256 24 12 -7 9 -14
-15 -34 -16 -14 -40 -29 -54 -32 -14 -4 -40 -16 -59 -27 -27 -17 -31 -23 -20
-32 8 -6 15 -22 16 -36 1 -14 5 -44 8 -67 10 -54 -11 -87 -68 -114 -66 -29
-108 -25 -157 16 -34 28 -50 35 -86 35 -24 0 -44 -5 -44 -10 0 -18 -64 -51
-88 -45 -17 4 -25 0 -34 -20 -7 -16 -19 -25 -33 -25 -12 0 -40 -13 -63 -30
-22 -16 -53 -32 -67 -36 -24 -6 -31 -29 -8 -29 5 0 17 -8 27 -18 10 -9 30 -17
44 -17 15 1 47 -2 72 -5 25 -4 197 -9 382 -11 l337 -4 63 35 c35 19 75 46 90
60 15 14 31 25 35 25 4 0 19 9 33 20 14 11 32 20 41 20 9 0 22 6 28 14 11 14
66 22 196 30 39 2 94 7 124 11 36 5 52 5 48 -2 -9 -14 114 -22 333 -23 96 -1
210 -2 252 -3 64 -2 77 1 75 13 -1 11 6 14 26 12 19 -2 29 2 34 15 4 10 16 25
28 35 11 9 16 20 12 25 -5 4 -196 10 -425 13 l-417 5 -55 32 c-30 18 -73 48
-95 68 -22 19 -47 33 -55 31 -117 -33 -177 -46 -192 -43 -9 3 -22 -1 -29 -9
-9 -12 -5 -14 22 -14 42 -1 22 -14 -36 -25 -49 -8 -114 -41 -122 -60 -9 -26
-23 -16 -23 16 0 59 93 154 140 142 10 -3 32 3 50 12 17 9 38 14 46 11 8 -3
21 -3 29 1 14 5 14 8 -2 26 -18 20 -17 20 7 14 14 -4 28 -7 33 -7 4 0 7 -7 7
-15 0 -16 25 -21 34 -7 3 5 -15 29 -40 53 l-45 44 -252 0 c-139 0 -427 -2
-642 -5z m254 -56 c-6 -8 -29 -17 -50 -20 -23 -4 -39 -12 -39 -20 0 -8 -9 -14
-19 -14 -11 0 -23 -4 -26 -10 -3 -5 -13 -10 -21 -10 -26 0 -15 19 22 36 21 10
33 22 30 30 -5 14 14 19 77 21 32 2 37 0 26 -13z m581 -24 c0 -5 -5 -10 -11
-10 -5 0 -7 5 -4 10 3 6 8 10 11 10 2 0 4 -4 4 -10z"/>
<path d="M7640 6689 c-25 -11 -53 -22 -62 -25 -32 -11 -19 -19 30 -18 50 2
106 28 99 47 -6 18 -20 17 -67 -4z"/>
<path d="M9233 6683 c-20 -13 -58 -49 -86 -79 -45 -50 -112 -103 -198 -158
-28 -17 -60 -18 -442 -21 -227 -1 -418 -3 -425 -4 -8 -1 -12 -10 -10 -23 3
-22 6 -23 103 -21 87 2 96 0 65 -10 -30 -10 -60 -29 -60 -39 0 -7 216 -1 232
6 9 4 25 3 36 -3 11 -6 22 -7 26 -3 4 3 125 8 269 9 223 2 267 5 293 20 27 14
31 21 27 47 -3 17 -9 35 -14 41 -13 13 -11 21 7 39 8 9 29 16 45 16 19 0 38 9
53 25 13 14 28 25 35 25 6 0 11 5 11 11 0 20 187 -8 215 -33 13 -11 37 -10 30
2 -10 16 8 11 35 -10 14 -11 30 -20 36 -20 6 0 17 -7 24 -15 7 -8 20 -15 29
-15 9 0 35 -14 58 -30 47 -34 67 -32 82 11 10 28 8 32 -19 47 -17 9 -32 24
-35 32 -3 8 -31 28 -62 43 l-58 27 45 -5 45 -6 -25 20 c-14 11 -29 21 -34 21
-5 0 -1 9 9 20 16 18 31 20 125 20 94 0 200 -9 308 -26 17 -3 32 -11 32 -18 0
-8 11 -21 25 -30 14 -9 25 -23 25 -31 0 -8 9 -15 20 -15 11 0 20 -7 20 -15 0
-25 36 -35 128 -35 70 0 91 3 96 15 6 18 -10 28 -89 51 -58 17 -71 19 -125 26
-16 2 -30 13 -39 32 -7 16 -22 31 -32 33 -40 11 -16 20 64 26 100 7 316 -3
323 -15 3 -4 -7 -9 -23 -9 -21 -1 -23 -3 -8 -6 11 -3 31 -14 44 -24 13 -11 35
-19 48 -19 24 0 24 0 -6 26 -17 14 -29 30 -26 34 3 5 23 11 45 15 22 4 40 10
40 13 0 4 -293 7 -651 8 l-651 1 -35 -24z m-63 -113 c0 -5 -4 -10 -10 -10 -5
0 -10 5 -10 10 0 6 5 10 10 10 6 0 10 -4 10 -10z m-170 -170 c0 -5 -4 -10 -10
-10 -5 0 -10 5 -10 10 0 6 5 10 10 10 6 0 10 -4 10 -10z"/>
<path d="M7901 6621 c-7 -5 -9 -11 -4 -14 5 -3 15 -2 22 2 7 5 9 11 4 14 -5 3
-15 2 -22 -2z"/>
<path d="M7628 6572 c-19 -15 -33 -33 -30 -40 2 -7 -3 -21 -11 -30 -17 -19
-43 -228 -32 -262 8 -25 27 -26 50 0 11 12 31 20 51 20 34 0 55 17 35 29 -7 5
-3 13 11 25 20 17 21 25 15 132 -9 159 -23 179 -89 126z"/>
<path d="M4041 6586 c2 -2 15 -9 29 -15 24 -11 24 -11 6 3 -16 13 -49 24 -35
12z"/>
<path d="M10899 6573 c-12 -16 -12 -16 1 -6 8 6 29 13 45 16 l30 4 -31 2 c-20
0 -37 -6 -45 -16z"/>
<path d="M7299 6502 l-47 -15 -6 -66 c-3 -36 -6 -180 -6 -319 l-1 -252 41 -38
c22 -20 47 -55 54 -77 11 -30 20 -41 38 -43 42 -5 49 16 55 181 6 165 3 179
-39 154 -14 -9 -34 -11 -53 -7 l-30 6 35 16 c19 9 43 19 53 22 24 7 33 36 16
48 -11 7 -11 11 -1 15 6 2 12 16 12 29 0 19 -5 24 -25 24 -14 0 -25 5 -25 10
0 6 6 10 14 10 7 0 19 6 25 14 10 12 9 20 -4 40 -10 14 -23 26 -30 26 -17 0
-27 -42 -12 -52 6 -4 8 -11 3 -15 -5 -4 -11 -2 -13 5 -3 6 -21 12 -41 13 -37
1 -37 1 -9 11 18 6 27 17 27 32 0 14 11 28 30 39 38 23 49 44 43 85 -6 35 -33
45 -33 12 0 -11 -3 -20 -6 -20 -12 0 -34 30 -34 47 0 16 6 18 38 15 20 -3 33
-1 29 4 -4 4 -18 8 -30 9 -33 0 -31 19 4 30 32 11 29 26 -5 24 -12 -1 -42 -9
-67 -17z"/>
<path d="M7878 6452 c-34 -15 -37 -20 -42 -67 -3 -27 -4 -68 -3 -90 2 -33 6
-40 27 -45 l24 -6 -22 -16 c-22 -15 -23 -23 -28 -194 -3 -135 -1 -184 8 -200
58 -93 59 -94 79 -83 15 7 21 6 25 -6 3 -8 11 -12 16 -9 9 6 7 157 -7 472 -1
32 -7 57 -15 62 -11 7 -11 13 2 32 11 17 14 40 10 86 -5 75 -19 87 -74 64z
m19 -288 c-3 -3 -12 -4 -19 -1 -8 3 -5 6 6 6 11 1 17 -2 13 -5z"/>
<path d="M9213 6449 c-19 -12 -33 -29 -33 -41 0 -17 -5 -20 -35 -16 -27 3 -35
0 -35 -12 0 -9 -5 -21 -12 -28 -9 -9 -8 -12 8 -12 70 0 182 78 162 113 -12 22
-16 21 -55 -4z"/>
<path d="M5170 6447 c0 -18 -34 -36 -76 -39 -17 -2 -20 -5 -12 -15 30 -37 123
13 99 54 -10 17 -10 17 -11 0z"/>
<path d="M9801 6439 c-1 -23 25 -59 42 -59 16 0 6 18 -12 23 -12 3 -21 16 -24
33 -4 28 -4 28 -6 3z"/>
<path d="M9580 6404 c0 -3 14 -17 30 -31 38 -32 30 -46 -16 -27 -40 17 -61 8
-66 -29 -2 -16 -11 -23 -32 -25 -16 -2 -38 -12 -50 -23 -25 -24 -36 -6 -12 20
15 17 15 19 1 25 -19 7 -53 -13 -58 -34 -3 -17 47 -92 88 -130 24 -23 34 -25
103 -23 43 1 120 5 172 9 52 4 111 7 130 6 369 -12 450 -10 518 11 70 23 79
34 42 53 -12 7 -35 26 -51 43 -16 18 -38 31 -51 31 -13 0 -29 5 -36 12 -14 14
-80 38 -108 38 -11 0 -24 -4 -30 -9 -5 -6 -24 -4 -47 4 -33 11 -38 11 -33 -1
8 -20 -20 -17 -63 7 l-38 21 -61 -26 c-72 -30 -89 -32 -121 -10 -18 13 -28 14
-46 6 -18 -8 -26 -8 -35 4 -7 8 -21 14 -31 14 -11 0 -19 5 -19 11 0 7 10 9 25
6 17 -3 24 0 22 7 -3 6 -10 10 -17 8 -7 -1 -28 6 -47 18 -33 19 -63 26 -63 14z
m30 -164 c-19 -13 -30 -13 -30 0 0 6 10 10 23 10 18 0 19 -2 7 -10z"/>
<path d="M4310 6391 c0 -5 48 -11 108 -15 259 -16 329 -19 362 -17 19 1 50 3
67 4 42 3 50 23 13 31 -47 9 -550 7 -550 -3z"/>
<path d="M10215 6392 c-82 -1 -153 -6 -158 -11 -16 -16 54 -23 157 -17 56 4
173 8 261 9 88 2 167 7 177 13 17 9 -149 12 -437 6z"/>
<path d="M6798 6294 c-25 -13 -28 -21 -30 -67 -1 -29 -3 -72 -5 -97 -10 -157
-11 -461 -2 -503 12 -54 29 -54 29 2 0 20 6 46 14 57 13 17 16 17 30 4 8 -8
18 -30 21 -49 8 -47 20 -67 30 -51 4 6 7 145 6 307 -1 301 -4 323 -39 323 -12
0 -11 5 6 20 12 12 22 32 22 45 0 21 -5 25 -27 25 -16 -1 -40 -8 -55 -16z m40
-553 c-2 -9 -12 -17 -23 -19 -17 -3 -18 -1 -5 8 11 9 12 13 2 17 -18 7 -4 23
14 16 8 -3 14 -13 12 -22z"/>
<path d="M8095 6286 c-18 -13 -20 -31 -23 -226 -2 -134 1 -210 7 -206 5 3 12
25 16 49 11 66 27 127 34 127 11 0 31 -53 31 -80 0 -15 3 -30 8 -34 4 -4 15
-31 24 -59 l17 -52 -5 140 c-6 198 -8 228 -17 242 -4 7 -5 28 -1 47 6 33 4 36
-31 50 -45 19 -37 19 -60 2z m42 -102 c-3 -3 -12 -4 -19 -1 -8 3 -5 6 6 6 11
1 17 -2 13 -5z"/>
<path d="M6117 6268 c-7 -4 22 -7 63 -7 79 1 78 6 -3 11 -27 2 -54 0 -60 -4z"/>
<path d="M8933 6263 c9 -2 23 -2 30 0 6 3 -1 5 -18 5 -16 0 -22 -2 -12 -5z"/>
<path d="M11239 6236 c-2 -2 -97 -6 -211 -7 -122 -2 -208 -7 -208 -13 0 -12
431 1 444 14 7 7 5 10 -5 10 -9 0 -18 -2 -20 -4z"/>
<path d="M6089 6220 c-171 -5 -169 -5 -269 -90 -28 -25 -31 -30 -14 -30 10 0
36 9 57 20 38 21 120 27 145 11 7 -4 12 -14 10 -22 -2 -9 4 -13 17 -11 11 1
65 7 120 12 108 11 121 13 147 24 9 4 23 4 29 0 7 -4 48 -10 91 -14 84 -8 118
-26 118 -64 -1 -51 -53 -78 -130 -69 -44 5 -50 4 -50 -12 0 -10 3 -16 6 -12
11 10 80 -33 94 -58 11 -21 11 -27 -2 -42 -8 -10 -18 -27 -22 -37 -5 -15 -4
-16 7 -8 18 15 31 4 48 -43 14 -37 18 -40 57 -43 35 -3 45 -8 52 -28 22 -56
28 -15 32 189 3 229 -1 291 -23 312 -16 16 -267 23 -520 15z"/>
<path d="M8521 6220 c-127 -5 -134 -6 -149 -29 -21 -32 -23 -39 -31 -161 -9
-147 -8 -149 46 -99 41 38 47 40 86 34 l42 -7 -53 54 -52 54 22 21 c36 34 61
39 165 31 54 -4 146 -7 205 -6 98 0 112 -2 154 -26 47 -27 63 -24 64 11 0 15
32 33 58 33 11 0 31 -9 45 -20 14 -11 35 -20 46 -20 12 0 21 -4 21 -10 0 -5
13 -16 29 -24 36 -19 59 -71 43 -97 -20 -32 -14 -39 33 -39 25 0 45 5 45 10 0
6 -5 10 -11 10 -5 0 -8 4 -4 9 8 13 61 6 57 -8 -1 -6 4 -11 12 -11 7 0 28 -3
46 -7 25 -5 31 -3 25 6 -6 11 -3 11 16 0 22 -11 99 -14 174 -7 17 2 36 10 43
18 8 8 11 9 7 3 -3 -7 -1 -13 4 -13 20 0 26 5 23 20 -2 10 1 9 9 -3 10 -18 12
-18 30 2 10 11 19 25 19 31 0 5 7 10 15 10 8 0 15 -7 15 -16 0 -8 4 -13 10 -9
5 3 7 11 4 18 -3 9 7 13 33 13 167 0 624 15 639 21 53 19 180 143 147 143 -12
0 -104 -63 -116 -80 -34 -47 -43 -49 -377 -51 -173 -1 -441 -1 -596 0 -252 1
-282 3 -300 19 -11 9 -40 31 -64 47 -25 17 -73 50 -107 74 l-63 44 -187 6
c-104 3 -248 4 -322 1z m1249 -234 c0 -3 -4 -8 -10 -11 -5 -3 -10 -1 -10 4 0
6 5 11 10 11 6 0 10 -2 10 -4z m-460 -35 c0 -6 -9 -9 -19 -8 -11 0 -17 5 -15
9 7 11 34 10 34 -1z"/>
<path d="M7620 6178 c-30 -16 -58 -37 -61 -46 -11 -34 -11 -305 0 -298 6 4 11
18 11 31 0 46 16 71 46 70 25 0 29 -5 41 -54 10 -38 11 -57 4 -64 -31 -31 5
-37 37 -6 21 19 22 28 20 117 l-3 97 -50 -3 c-32 -2 -45 0 -37 6 7 5 23 7 36
5 32 -7 49 18 40 61 -3 20 -11 36 -16 36 -5 0 -7 8 -4 18 2 9 7 27 11 40 8 29
-6 28 -75 -10z"/>
<path d="M5684 6157 c-15 -13 -23 -26 -18 -30 10 -6 31 8 53 36 20 25 -3 21
-35 -6z"/>
<path d="M9250 6160 c0 -16 26 -40 44 -40 11 0 6 36 -6 48 -18 18 -38 14 -38
-8z"/>
<path d="M8023 6025 c0 -38 2 -53 4 -32 2 20 2 52 0 70 -2 17 -4 1 -4 -38z"/>
<path d="M8831 6076 c2 -2 22 -6 44 -9 27 -4 35 -3 25 3 -14 9 -79 15 -69 6z"/>
<path d="M5700 6050 c-23 -18 -42 -20 -206 -20 -100 0 -210 -3 -245 -7 l-64
-7 125 -12 c69 -7 158 -18 199 -24 77 -12 74 -13 156 27 43 21 93 63 75 63 -8
0 -26 -9 -40 -20z"/>
<path d="M4500 6030 c0 -5 5 -10 10 -10 6 0 10 5 10 10 0 6 -4 10 -10 10 -5 0
-10 -4 -10 -10z"/>
<path d="M4532 6025 c7 -7 299 -8 306 -1 3 3 -66 6 -153 6 -87 0 -156 -2 -153
-5z"/>
<path d="M6074 5988 c-23 -24 -25 -29 -9 -23 11 4 57 11 102 15 45 5 92 12
105 16 21 7 19 9 -17 15 -22 4 -65 8 -96 8 -50 1 -58 -2 -85 -31z"/>
<path d="M8682 6004 c-45 -7 -89 -17 -96 -23 -7 -6 -16 -8 -19 -4 -4 3 -7 -1
-7 -9 0 -13 11 -16 47 -16 27 0 54 4 61 10 21 18 147 22 184 7 18 -7 68 -37
111 -67 43 -30 81 -52 83 -49 3 3 -33 35 -80 71 -46 37 -86 70 -88 75 -5 15
-108 17 -196 5z"/>
<path d="M9040 5936 c25 -26 53 -52 64 -58 35 -19 -6 28 -60 68 l-49 37 45
-47z"/>
<path d="M3960 5900 c-12 -8 -9 -10 13 -10 35 0 79 -23 104 -52 30 -38 104
-100 111 -94 3 4 -32 42 -78 86 -85 81 -113 94 -150 70z"/>
<path d="M10894 5863 c-23 -26 -41 -49 -39 -52 3 -2 18 10 34 27 39 43 68 52
167 52 49 0 84 4 84 10 0 6 -40 10 -101 10 l-101 0 -44 -47z"/>
<path d="M5920 5853 c-30 -31 -35 -38 -14 -22 28 22 70 69 62 69 -2 0 -24 -21
-48 -47z"/>
<path d="M11163 5893 c9 -2 23 -2 30 0 6 3 -1 5 -18 5 -16 0 -22 -2 -12 -5z"/>
<path d="M8525 5806 c-34 -34 -32 -56 3 -25 15 13 31 27 35 30 5 4 4 10 -2 13
-6 4 -22 -4 -36 -18z"/>
<path d="M9150 5798 c0 -4 62 -7 138 -7 75 1 130 3 122 5 -35 7 -260 9 -260 2z"/>
<path d="M9460 5799 c-19 -3 65 -7 187 -8 122 0 233 -5 247 -11 17 -6 26 -6
26 0 0 5 -10 12 -22 14 -39 8 -401 12 -438 5z"/>
<path d="M5058 5786 c-29 -21 -21 -26 17 -10 28 11 100 14 391 13 195 0 358 2
362 5 3 3 -165 6 -374 6 -299 -1 -383 -3 -396 -14z"/>
<path d="M10810 5775 c-8 -9 -8 -15 -2 -15 12 0 26 19 19 26 -2 2 -10 -2 -17
-11z"/>
<path d="M7722 5748 c-14 -14 -16 -28 -2 -28 5 0 14 9 20 20 12 22 1 27 -18 8z"/>
<path d="M4240 5682 c6 -13 14 -21 18 -18 3 4 -2 14 -12 24 -18 16 -18 16 -6
-6z"/>
<path d="M4670 5640 l-75 -6 83 -2 c49 -1 82 2 82 8 0 6 -3 9 -7 8 -5 -1 -42
-4 -83 -8z"/>
<path d="M10288 5643 c18 -2 45 -2 60 0 15 2 0 4 -33 4 -33 0 -45 -2 -27 -4z"/>
<path d="M7489 5590 c-6 -74 -4 -310 4 -310 4 0 7 28 7 63 1 34 3 90 5 124 2
34 0 83 -5 110 -7 46 -8 46 -11 13z"/>
<path d="M4653 5583 c-74 -3 -113 -7 -113 -15 0 -15 247 -5 262 10 9 9 6 11
-12 10 -14 -1 -76 -4 -137 -5z"/>
<path d="M10166 5581 c16 -17 314 -29 314 -12 0 8 -41 11 -137 11 -76 0 -149
3 -163 6 -19 5 -22 4 -14 -5z"/>
<path d="M4298 5562 c-16 -10 -28 -20 -28 -24 0 -14 14 -8 45 17 34 28 24 32
-17 7z"/>
<path d="M8620 5570 c-23 -6 -22 -8 15 -14 22 -4 48 -9 58 -11 21 -4 21 -1 1
19 -16 17 -34 19 -74 6z"/>
<path d="M10665 5555 c16 -13 31 -22 34 -20 8 8 -32 45 -48 45 -11 -1 -7 -8
14 -25z"/>
<path d="M6108 5453 c7 -3 16 -2 19 1 4 3 -2 6 -13 5 -11 0 -14 -3 -6 -6z"/>
<path d="M8842 5449 c7 -5 164 -9 349 -9 l336 0 46 -36 c26 -20 47 -40 47 -44
0 -4 8 -11 18 -14 9 -4 -8 18 -38 49 l-55 55 -359 4 c-197 2 -352 -1 -344 -5z"/>
<path d="M5427 5443 c-3 -5 72 -7 166 -5 281 4 307 8 65 10 -125 1 -229 -1
-231 -5z"/>
<path d="M5938 5443 c29 -2 74 -2 100 0 26 2 2 3 -53 3 -55 0 -76 -1 -47 -3z"/>
</g>
</svg>
